PathFileType	4	(X/Y/Z)	Walk6.trc
DataRate	CameraRate	NumFrames	NumMarkers	Units	OrigDataRate	OrigDataStartFrame	OrigNumFrames
200.000000	200.000000	4	61	mm	200.000000	274	449
Frame#	Times		LFHD		RFHD		CLAV		STRN		LASI		RASI		RACR1		RUA1		RFA1		RWRU		RCAR		LACR1		LUA1		LFA1		LWRU		LCAR		RTH3		RTH2		RTH4		RTB3		RTB4		LTH1		LTH3		LTH2		LTH4		LLFC		LTB1		LTB2		LTB4		RTH1		RTB1		RMT5		RMFC		RToe		RMT1		RMMAL		LElbow		RTB2		LBHD		RLFC		LWRR		RLMAL		RCAL		RWRR		RElbow		T10		RBack		RPSI		RBHD		LTB3		LMFC		LPSI		LToe		LLMAL		C7		RElbowM		LCAL		LElbowM		LMT5		LMT1		LMMAL
			X1	Y1	Z1	X2	Y2	Z2	X3	Y3	Z3	X4	Y4	Z4	X5	Y5	Z5	X6	Y6	Z6	X7	Y7	Z7	X8	Y8	Z8	X9	Y9	Z9	X10	Y10	Z10	X11	Y11	Z11	X12	Y12	Z12	X13	Y13	Z13	X14	Y14	Z14	X15	Y15	Z15	X16	Y16	Z16	X17	Y17	Z17	X18	Y18	Z18	X19	Y19	Z19	X20	Y20	Z20	X21	Y21	Z21	X22	Y22	Z22	X23	Y23	Z23	X24	Y24	Z24	X25	Y25	Z25	X26	Y26	Z26	X27	Y27	Z27	X28	Y28	Z28	X29	Y29	Z29	X30	Y30	Z30	X31	Y31	Z31	X32	Y32	Z32	X33	Y33	Z33	X34	Y34	Z34	X35	Y35	Z35	X36	Y36	Z36	X37	Y37	Z37	X38	Y38	Z38	X39	Y39	Z39	X40	Y40	Z40	X41	Y41	Z41	X42	Y42	Z42	X43	Y43	Z43	X44	Y44	Z44	X45	Y45	Z45	X46	Y46	Z46	X47	Y47	Z47	X48	Y48	Z48	X49	Y49	Z49	X50	Y50	Z50	X51	Y51	Z51	X52	Y52	Z52	X53	Y53	Z53	X54	Y54	Z54	X55	Y55	Z55	X56	Y56	Z56	X57	Y57	Z57	X58	Y58	Z58	X59	Y59	Z59	X60	Y60	Z60	X61	Y61	Z61

274	1.37	72.935	1567.8	-13.217	71.156	1572.4	86.301	34.293	1296.8	43.341	58.147	1162.3	47.303	3.1613	883.9	-73.419	32.725	905.44	173.87	-35.566	1330	211.24	-55.618	1161	266.14	-74.642	874.43	332.85	-47.884	748.14	310.4	-77.571	689.16	361.45	-41.709	1345.1	-106.82	-37.095	1172.9	-170.95	76.34	919.97	-210.79	186.55	873.55	-174.87	220.06	808.91	-202.17	75.199	588.31	221.34	96.655	691.9	213.55	49.441	666.53	241.83	180.06	180.14	138.99	173.74	265.21	149.04	-85.452	724.95	-125.93	-126.74	560.72	-99.052	-51.94	632.49	-96.613	-106.96	642.2	-114.3	-177.12	427.51	-82.544	-204.85	319.47	-19.241	-283.41	272.42	-71.824	-269.26	262.39	-13.68	23.829	747.13	263.93	166.31	351.77	155.91	247.16	29.835	163.31	94.493	437.29	63.714	327.67	53.212	114.08	279.71	47.542	82.455	151.83	85.308	74.103	-31.195	1017.4	-203.64	129.29	258.24	190.11	-71.207	1506.6	-34.931	124.81	452.37	187.38	140.02	823.81	-189.04	140.99	63.181	153.42	93.351	34.165	109.1	-107.42	756.84	343.67	-86.863	1000.4	299.85	-152.68	1187	53.409	-154.34	1271.6	120.47	-148.04	942.99	125.71	-71.076	1519.1	107.72	-328.17	202.43	-6.9342	-189.45	422.25	49.407	-161.67	942.71	26.662	-335.17	22.122	16.843	-442.89	153.86	-47.061	-79.22	1398	45.915	-110.38	993.53	225.06	-496.77	174.44	-6.3984	-49.915	991.1	-135.24	-405.6	39.429	-37.725	-382.22	35.064	42.962	-420.53	160.77	32.189
275	1.375	79.904	1567.9	-12.835	78.223	1572.7	86.672	42.088	1296.9	44.025	66.168	1162.5	48.201	11.011	883.36	-72.583	40.256	906.1	174.25	-27.581	1330	211.99	-47.36	1161	266.84	-66.067	874.38	333.43	-39.302	748.06	310.89	-68.93	689.05	361.96	-34.189	1344.8	-106.19	-30.801	1172.5	-170	81.026	918.55	-210.14	190.95	871.04	-174.76	223.65	806.12	-202.34	82.311	588.84	221.68	104.11	692.36	214.44	56.677	667.06	242.29	183.33	179.33	138.46	178.41	264.52	148.44	-76.211	723.78	-125.18	-115.45	558.98	-98.856	-41.606	631.66	-96.033	-96.691	640.75	-113.76	-164.57	425.59	-82.766	-194.13	318.06	-19.699	-273.72	272.96	-72.459	-259.8	262.39	-14.347	31.224	747.66	264.6	172.28	351.2	155.26	248.05	28.365	163.15	100.73	437.95	64.006	329.03	49.685	112.9	280.54	45.033	81.638	153.04	84.904	73.996	-25.656	1016.9	-202.45	134.6	258.25	190.29	-64.106	1506.3	-34.289	132.14	452.75	187.33	143.87	821.74	-188.72	142.5	62.997	153.44	93.908	34.824	109.47	-98.775	756.76	344.27	-78.363	1000.3	300.49	-144.91	1187	54.045	-146.46	1271.6	121.37	-140.48	943.32	125.65	-63.851	1519.1	108.33	-320.03	203.77	-7.7807	-176.63	419.83	49.193	-154.02	942.49	26.47	-334.45	21.688	16.825	-435.7	157.97	-48.216	-71.494	1398	46.68	-101.97	993.45	225.63	-488.54	180.72	-7.8155	-44.076	990.81	-133.95	-402.7	41.926	-38.156	-380.08	36.941	42.443	-413.38	164.12	30.895
276	1.38	86.872	1568.1	-12.439	85.28	1573	87.056	49.869	1297.1	44.677	74.13	1162.6	49.065	18.762	882.87	-71.765	47.718	906.83	174.61	-19.571	1330.1	212.7	-39.079	1161	267.53	-57.424	874.38	334	-30.575	748.05	311.37	-60.105	689	362.45	-26.661	1344.7	-105.58	-24.526	1172.2	-169.05	85.552	917.14	-209.48	195.14	868.47	-174.67	226.97	803.25	-202.54	89.186	589.33	222.11	111.37	692.77	215.51	63.685	667.55	242.83	186.4	178.54	138.01	182.87	263.82	147.95	-66.904	722.61	-124.45	-103.95	557.24	-98.66	-31.142	630.89	-95.442	-86.291	639.3	-113.22	-151.68	423.66	-82.94	-183.06	316.71	-20.066	-263.62	273.54	-73.016	-249.97	262.48	-14.923	38.397	748.15	265.34	178.06	350.59	154.72	248.83	27.133	163.15	106.78	438.62	64.377	330.23	46.523	111.91	281.26	42.854	80.989	154.13	84.582	73.95	-20.202	1016.5	-201.23	139.7	258.23	190.56	-56.991	1506.1	-33.654	139.35	453.13	187.31	147.48	819.66	-188.39	143.86	62.845	153.51	94.409	35.432	109.85	-89.984	756.72	344.87	-69.847	1000.3	301.13	-137.19	1187.1	54.646	-138.59	1271.6	122.26	-133.02	943.66	125.53	-56.623	1519.1	108.93	-311.48	205.21	-8.5396	-163.51	417.45	49.07	-146.45	942.3	26.225	-333.36	21.253	16.725	-428.03	162.19	-49.288	-63.757	1398	47.415	-93.57	993.45	226.2	-479.79	187.1	-9.1633	-38.301	990.61	-132.63	-399.3	44.737	-38.632	-377.44	39.059	41.847	-405.79	167.59	29.669
277	1.385	93.84	1568.3	-12.03	92.328	1573.4	87.455	57.63	1297.2	45.291	82.024	1162.8	49.885	26.411	882.45	-70.97	55.115	907.64	174.98	-11.541	1330.2	213.37	-30.777	1161.1	268.2	-48.709	874.43	334.56	-21.705	748.11	311.82	-51.097	689	362.91	-19.132	1344.6	-104.98	-18.262	1171.9	-168.12	89.925	915.76	-208.81	199.13	865.84	-174.6	230.02	800.33	-202.79	95.83	589.77	222.62	118.44	693.11	216.74	70.473	668	243.44	189.27	177.75	137.66	187.11	263.11	147.56	-57.54	721.46	-123.75	-92.258	555.52	-98.463	-20.563	630.19	-94.847	-75.775	637.86	-112.69	-138.5	421.73	-83.059	-171.66	315.46	-20.328	-253.11	274.17	-73.482	-239.77	262.67	-15.392	45.354	748.61	266.13	183.6	349.96	154.3	249.48	26.118	163.27	112.66	439.27	64.819	331.28	43.721	111.13	281.86	40.995	80.499	155.09	84.334	73.959	-14.827	1016.1	-200	144.55	258.19	190.89	-49.86	1505.9	-33.027	146.41	453.48	187.34	150.85	817.56	-188.05	145.05	62.716	153.61	94.851	35.981	110.23	-81.051	756.71	345.45	-61.315	1000.3	301.77	-129.54	1187.2	55.214	-130.74	1271.7	123.12	-125.64	944.01	125.35	-49.391	1519.1	109.54	-302.53	206.77	-9.1947	-150.11	415.15	49.045	-138.96	942.15	25.937	-331.83	20.841	16.523	-419.88	166.51	-50.262	-56.014	1398.2	48.119	-85.169	993.51	226.76	-470.56	193.54	-10.419	-32.585	990.52	-131.28	-395.36	47.855	-39.146	-374.22	41.409	41.174	-397.75	171.15	28.535
